<mxfile host="Electron" agent="Mozilla/5.0 (Windows NT 10.0; Win64; x64) AppleWebKit/537.36 (KHTML, like Gecko) draw.io/24.7.5 Chrome/126.0.6478.183 Electron/31.3.0 Safari/537.36" version="24.7.5">
  <diagram name="第 1 页" id="2QriNIWdTIV_ohWtYcBS">
    <mxGraphModel dx="1221" dy="831" grid="1" gridSize="10" guides="1" tooltips="1" connect="1" arrows="1" fold="1" page="1" pageScale="1" pageWidth="827" pageHeight="1169" math="1" shadow="0">
      <root>
        <mxCell id="0" />
        <mxCell id="1" parent="0" />
        <mxCell id="r4UEvHGYDHARvGTvE8lU-80" value="" style="rounded=0;whiteSpace=wrap;html=1;" vertex="1" parent="1">
          <mxGeometry x="50" y="140" width="1170" height="260" as="geometry" />
        </mxCell>
        <mxCell id="r4UEvHGYDHARvGTvE8lU-79" value="" style="rounded=0;whiteSpace=wrap;html=1;" vertex="1" parent="1">
          <mxGeometry x="50" y="400" width="1170" height="260" as="geometry" />
        </mxCell>
        <mxCell id="r4UEvHGYDHARvGTvE8lU-4" style="edgeStyle=orthogonalEdgeStyle;rounded=0;orthogonalLoop=1;jettySize=auto;html=1;entryX=0;entryY=0.5;entryDx=0;entryDy=0;" edge="1" parent="1" source="r4UEvHGYDHARvGTvE8lU-1" target="r4UEvHGYDHARvGTvE8lU-3">
          <mxGeometry relative="1" as="geometry" />
        </mxCell>
        <mxCell id="r4UEvHGYDHARvGTvE8lU-1" value="query&lt;div&gt;[2,4,5]&lt;/div&gt;" style="rounded=1;whiteSpace=wrap;html=1;fillColor=#d5e8d4;strokeColor=#82b366;" vertex="1" parent="1">
          <mxGeometry x="80" y="160" width="120" height="60" as="geometry" />
        </mxCell>
        <mxCell id="r4UEvHGYDHARvGTvE8lU-18" style="edgeStyle=orthogonalEdgeStyle;rounded=0;orthogonalLoop=1;jettySize=auto;html=1;entryX=0;entryY=0.5;entryDx=0;entryDy=0;" edge="1" parent="1" source="r4UEvHGYDHARvGTvE8lU-3" target="r4UEvHGYDHARvGTvE8lU-15">
          <mxGeometry relative="1" as="geometry" />
        </mxCell>
        <mxCell id="r4UEvHGYDHARvGTvE8lU-3" value="query&lt;div&gt;[2,4,100]&lt;/div&gt;" style="rounded=1;whiteSpace=wrap;html=1;fillColor=#d5e8d4;strokeColor=#82b366;" vertex="1" parent="1">
          <mxGeometry x="280" y="160" width="120" height="60" as="geometry" />
        </mxCell>
        <mxCell id="r4UEvHGYDHARvGTvE8lU-5" value="W_q" style="text;html=1;align=center;verticalAlign=middle;resizable=0;points=[];autosize=1;strokeColor=none;fillColor=none;" vertex="1" parent="1">
          <mxGeometry x="215" y="160" width="50" height="30" as="geometry" />
        </mxCell>
        <mxCell id="r4UEvHGYDHARvGTvE8lU-6" style="edgeStyle=orthogonalEdgeStyle;rounded=0;orthogonalLoop=1;jettySize=auto;html=1;entryX=0;entryY=0.5;entryDx=0;entryDy=0;" edge="1" source="r4UEvHGYDHARvGTvE8lU-7" target="r4UEvHGYDHARvGTvE8lU-8" parent="1">
          <mxGeometry relative="1" as="geometry" />
        </mxCell>
        <mxCell id="r4UEvHGYDHARvGTvE8lU-7" value="&lt;div&gt;key&lt;/div&gt;&lt;div&gt;[2,6,10]&lt;/div&gt;" style="rounded=1;whiteSpace=wrap;html=1;fillColor=#dae8fc;strokeColor=#6c8ebf;" vertex="1" parent="1">
          <mxGeometry x="80" y="240" width="120" height="60" as="geometry" />
        </mxCell>
        <mxCell id="r4UEvHGYDHARvGTvE8lU-19" style="edgeStyle=orthogonalEdgeStyle;rounded=0;orthogonalLoop=1;jettySize=auto;html=1;entryX=0;entryY=0.5;entryDx=0;entryDy=0;" edge="1" parent="1" source="r4UEvHGYDHARvGTvE8lU-8" target="r4UEvHGYDHARvGTvE8lU-15">
          <mxGeometry relative="1" as="geometry" />
        </mxCell>
        <mxCell id="r4UEvHGYDHARvGTvE8lU-8" value="key&lt;div&gt;[2,6,100]&lt;/div&gt;" style="rounded=1;whiteSpace=wrap;html=1;fillColor=#dae8fc;strokeColor=#6c8ebf;" vertex="1" parent="1">
          <mxGeometry x="280" y="240" width="120" height="60" as="geometry" />
        </mxCell>
        <mxCell id="r4UEvHGYDHARvGTvE8lU-9" value="W_q" style="text;html=1;align=center;verticalAlign=middle;resizable=0;points=[];autosize=1;strokeColor=none;fillColor=none;" vertex="1" parent="1">
          <mxGeometry x="215" y="240" width="50" height="30" as="geometry" />
        </mxCell>
        <mxCell id="r4UEvHGYDHARvGTvE8lU-10" style="edgeStyle=orthogonalEdgeStyle;rounded=0;orthogonalLoop=1;jettySize=auto;html=1;entryX=0;entryY=0.5;entryDx=0;entryDy=0;" edge="1" source="r4UEvHGYDHARvGTvE8lU-11" target="r4UEvHGYDHARvGTvE8lU-13" parent="1">
          <mxGeometry relative="1" as="geometry" />
        </mxCell>
        <mxCell id="r4UEvHGYDHARvGTvE8lU-11" value="value&lt;div&gt;[2,6,15]&lt;/div&gt;" style="rounded=1;whiteSpace=wrap;html=1;fillColor=#f8cecc;strokeColor=#b85450;" vertex="1" parent="1">
          <mxGeometry x="80" y="320" width="120" height="60" as="geometry" />
        </mxCell>
        <mxCell id="r4UEvHGYDHARvGTvE8lU-12" value="W_q" style="text;html=1;align=center;verticalAlign=middle;resizable=0;points=[];autosize=1;strokeColor=none;fillColor=none;" vertex="1" parent="1">
          <mxGeometry x="215" y="320" width="50" height="30" as="geometry" />
        </mxCell>
        <mxCell id="r4UEvHGYDHARvGTvE8lU-22" style="edgeStyle=orthogonalEdgeStyle;rounded=0;orthogonalLoop=1;jettySize=auto;html=1;entryX=0.5;entryY=1;entryDx=0;entryDy=0;" edge="1" parent="1" source="r4UEvHGYDHARvGTvE8lU-13" target="r4UEvHGYDHARvGTvE8lU-23">
          <mxGeometry relative="1" as="geometry">
            <mxPoint x="700" y="350" as="targetPoint" />
          </mxGeometry>
        </mxCell>
        <mxCell id="r4UEvHGYDHARvGTvE8lU-13" value="value&lt;div&gt;[2,6,100]&lt;/div&gt;" style="rounded=1;whiteSpace=wrap;html=1;fillColor=#f8cecc;strokeColor=#b85450;" vertex="1" parent="1">
          <mxGeometry x="280" y="320" width="120" height="60" as="geometry" />
        </mxCell>
        <mxCell id="r4UEvHGYDHARvGTvE8lU-25" value="" style="edgeStyle=orthogonalEdgeStyle;rounded=0;orthogonalLoop=1;jettySize=auto;html=1;" edge="1" parent="1" source="r4UEvHGYDHARvGTvE8lU-14" target="r4UEvHGYDHARvGTvE8lU-23">
          <mxGeometry relative="1" as="geometry" />
        </mxCell>
        <mxCell id="r4UEvHGYDHARvGTvE8lU-14" value="attention_weight&lt;div&gt;[2,4,6]&lt;/div&gt;" style="rounded=1;whiteSpace=wrap;html=1;fillColor=#fff2cc;strokeColor=#d6b656;" vertex="1" parent="1">
          <mxGeometry x="550" y="200" width="120" height="60" as="geometry" />
        </mxCell>
        <mxCell id="r4UEvHGYDHARvGTvE8lU-20" style="edgeStyle=orthogonalEdgeStyle;rounded=0;orthogonalLoop=1;jettySize=auto;html=1;entryX=0;entryY=0.5;entryDx=0;entryDy=0;" edge="1" parent="1" source="r4UEvHGYDHARvGTvE8lU-15" target="r4UEvHGYDHARvGTvE8lU-14">
          <mxGeometry relative="1" as="geometry" />
        </mxCell>
        <mxCell id="r4UEvHGYDHARvGTvE8lU-15" value="" style="ellipse;whiteSpace=wrap;html=1;aspect=fixed;" vertex="1" parent="1">
          <mxGeometry x="450" y="220" width="20" height="20" as="geometry" />
        </mxCell>
        <mxCell id="r4UEvHGYDHARvGTvE8lU-21" value="scoring&amp;nbsp;&lt;div&gt;function&lt;/div&gt;" style="text;html=1;align=center;verticalAlign=middle;resizable=0;points=[];autosize=1;strokeColor=none;fillColor=none;" vertex="1" parent="1">
          <mxGeometry x="470" y="190" width="70" height="40" as="geometry" />
        </mxCell>
        <mxCell id="r4UEvHGYDHARvGTvE8lU-27" value="" style="edgeStyle=orthogonalEdgeStyle;rounded=0;orthogonalLoop=1;jettySize=auto;html=1;" edge="1" parent="1" source="r4UEvHGYDHARvGTvE8lU-23" target="r4UEvHGYDHARvGTvE8lU-26">
          <mxGeometry relative="1" as="geometry" />
        </mxCell>
        <mxCell id="r4UEvHGYDHARvGTvE8lU-23" value="" style="ellipse;whiteSpace=wrap;html=1;aspect=fixed;" vertex="1" parent="1">
          <mxGeometry x="600" y="290" width="20" height="20" as="geometry" />
        </mxCell>
        <mxCell id="r4UEvHGYDHARvGTvE8lU-31" value="" style="edgeStyle=orthogonalEdgeStyle;rounded=0;orthogonalLoop=1;jettySize=auto;html=1;" edge="1" parent="1" source="r4UEvHGYDHARvGTvE8lU-26" target="r4UEvHGYDHARvGTvE8lU-30">
          <mxGeometry relative="1" as="geometry" />
        </mxCell>
        <mxCell id="r4UEvHGYDHARvGTvE8lU-26" value="tmp_output&lt;div&gt;[2,4,100]&lt;/div&gt;" style="rounded=1;whiteSpace=wrap;html=1;fillColor=#ffff88;strokeColor=#36393d;" vertex="1" parent="1">
          <mxGeometry x="700" y="270" width="120" height="60" as="geometry" />
        </mxCell>
        <mxCell id="r4UEvHGYDHARvGTvE8lU-28" value="product" style="text;html=1;align=center;verticalAlign=middle;resizable=0;points=[];autosize=1;strokeColor=none;fillColor=none;" vertex="1" parent="1">
          <mxGeometry x="630" y="270" width="60" height="30" as="geometry" />
        </mxCell>
        <mxCell id="r4UEvHGYDHARvGTvE8lU-30" value="final_output&lt;div&gt;[2,4,15]&lt;/div&gt;" style="rounded=1;whiteSpace=wrap;html=1;fillColor=#e1d5e7;strokeColor=#9673a6;" vertex="1" parent="1">
          <mxGeometry x="700" y="160" width="120" height="60" as="geometry" />
        </mxCell>
        <mxCell id="r4UEvHGYDHARvGTvE8lU-32" value="W_o" style="text;html=1;align=center;verticalAlign=middle;resizable=0;points=[];autosize=1;strokeColor=none;fillColor=none;" vertex="1" parent="1">
          <mxGeometry x="720" y="230" width="50" height="30" as="geometry" />
        </mxCell>
        <mxCell id="r4UEvHGYDHARvGTvE8lU-33" style="edgeStyle=orthogonalEdgeStyle;rounded=0;orthogonalLoop=1;jettySize=auto;html=1;entryX=0;entryY=0.5;entryDx=0;entryDy=0;" edge="1" source="r4UEvHGYDHARvGTvE8lU-34" target="r4UEvHGYDHARvGTvE8lU-35" parent="1">
          <mxGeometry relative="1" as="geometry" />
        </mxCell>
        <mxCell id="r4UEvHGYDHARvGTvE8lU-34" value="query&lt;div&gt;[2,4,5]&lt;/div&gt;" style="rounded=1;whiteSpace=wrap;html=1;fillColor=#d5e8d4;strokeColor=#82b366;" vertex="1" parent="1">
          <mxGeometry x="80" y="420" width="120" height="60" as="geometry" />
        </mxCell>
        <mxCell id="r4UEvHGYDHARvGTvE8lU-46" style="edgeStyle=orthogonalEdgeStyle;rounded=0;orthogonalLoop=1;jettySize=auto;html=1;entryX=0;entryY=0.5;entryDx=0;entryDy=0;" edge="1" parent="1" source="r4UEvHGYDHARvGTvE8lU-35" target="r4UEvHGYDHARvGTvE8lU-45">
          <mxGeometry relative="1" as="geometry" />
        </mxCell>
        <mxCell id="r4UEvHGYDHARvGTvE8lU-35" value="query&lt;div&gt;[2,4,100]&lt;/div&gt;" style="rounded=1;whiteSpace=wrap;html=1;fillColor=#d5e8d4;strokeColor=#82b366;" vertex="1" parent="1">
          <mxGeometry x="280" y="420" width="120" height="60" as="geometry" />
        </mxCell>
        <mxCell id="r4UEvHGYDHARvGTvE8lU-36" value="W_q" style="text;html=1;align=center;verticalAlign=middle;resizable=0;points=[];autosize=1;strokeColor=none;fillColor=none;" vertex="1" parent="1">
          <mxGeometry x="215" y="420" width="50" height="30" as="geometry" />
        </mxCell>
        <mxCell id="r4UEvHGYDHARvGTvE8lU-37" style="edgeStyle=orthogonalEdgeStyle;rounded=0;orthogonalLoop=1;jettySize=auto;html=1;entryX=0;entryY=0.5;entryDx=0;entryDy=0;" edge="1" source="r4UEvHGYDHARvGTvE8lU-38" target="r4UEvHGYDHARvGTvE8lU-39" parent="1">
          <mxGeometry relative="1" as="geometry" />
        </mxCell>
        <mxCell id="r4UEvHGYDHARvGTvE8lU-38" value="&lt;div&gt;key&lt;/div&gt;&lt;div&gt;[2,6,10]&lt;/div&gt;" style="rounded=1;whiteSpace=wrap;html=1;fillColor=#dae8fc;strokeColor=#6c8ebf;" vertex="1" parent="1">
          <mxGeometry x="80" y="500" width="120" height="60" as="geometry" />
        </mxCell>
        <mxCell id="r4UEvHGYDHARvGTvE8lU-51" value="" style="edgeStyle=orthogonalEdgeStyle;rounded=0;orthogonalLoop=1;jettySize=auto;html=1;" edge="1" parent="1" source="r4UEvHGYDHARvGTvE8lU-39" target="r4UEvHGYDHARvGTvE8lU-48">
          <mxGeometry relative="1" as="geometry" />
        </mxCell>
        <mxCell id="r4UEvHGYDHARvGTvE8lU-39" value="key&lt;div&gt;[2,6,100]&lt;/div&gt;" style="rounded=1;whiteSpace=wrap;html=1;fillColor=#dae8fc;strokeColor=#6c8ebf;" vertex="1" parent="1">
          <mxGeometry x="280" y="500" width="120" height="60" as="geometry" />
        </mxCell>
        <mxCell id="r4UEvHGYDHARvGTvE8lU-40" value="W_q" style="text;html=1;align=center;verticalAlign=middle;resizable=0;points=[];autosize=1;strokeColor=none;fillColor=none;" vertex="1" parent="1">
          <mxGeometry x="215" y="500" width="50" height="30" as="geometry" />
        </mxCell>
        <mxCell id="r4UEvHGYDHARvGTvE8lU-41" style="edgeStyle=orthogonalEdgeStyle;rounded=0;orthogonalLoop=1;jettySize=auto;html=1;entryX=0;entryY=0.5;entryDx=0;entryDy=0;" edge="1" source="r4UEvHGYDHARvGTvE8lU-42" target="r4UEvHGYDHARvGTvE8lU-44" parent="1">
          <mxGeometry relative="1" as="geometry" />
        </mxCell>
        <mxCell id="r4UEvHGYDHARvGTvE8lU-42" value="value&lt;div&gt;[2,6,15]&lt;/div&gt;" style="rounded=1;whiteSpace=wrap;html=1;fillColor=#f8cecc;strokeColor=#b85450;" vertex="1" parent="1">
          <mxGeometry x="80" y="580" width="120" height="60" as="geometry" />
        </mxCell>
        <mxCell id="r4UEvHGYDHARvGTvE8lU-43" value="W_q" style="text;html=1;align=center;verticalAlign=middle;resizable=0;points=[];autosize=1;strokeColor=none;fillColor=none;" vertex="1" parent="1">
          <mxGeometry x="215" y="580" width="50" height="30" as="geometry" />
        </mxCell>
        <mxCell id="r4UEvHGYDHARvGTvE8lU-52" value="" style="edgeStyle=orthogonalEdgeStyle;rounded=0;orthogonalLoop=1;jettySize=auto;html=1;" edge="1" parent="1" source="r4UEvHGYDHARvGTvE8lU-44" target="r4UEvHGYDHARvGTvE8lU-49">
          <mxGeometry relative="1" as="geometry" />
        </mxCell>
        <mxCell id="r4UEvHGYDHARvGTvE8lU-44" value="value&lt;div&gt;[2,6,100]&lt;/div&gt;" style="rounded=1;whiteSpace=wrap;html=1;fillColor=#f8cecc;strokeColor=#b85450;" vertex="1" parent="1">
          <mxGeometry x="280" y="580" width="120" height="60" as="geometry" />
        </mxCell>
        <mxCell id="r4UEvHGYDHARvGTvE8lU-67" style="edgeStyle=orthogonalEdgeStyle;rounded=0;orthogonalLoop=1;jettySize=auto;html=1;entryX=0.5;entryY=0;entryDx=0;entryDy=0;" edge="1" parent="1" source="r4UEvHGYDHARvGTvE8lU-45" target="r4UEvHGYDHARvGTvE8lU-58">
          <mxGeometry relative="1" as="geometry" />
        </mxCell>
        <mxCell id="r4UEvHGYDHARvGTvE8lU-45" value="query&lt;div&gt;[10,4,20]&lt;/div&gt;" style="rounded=1;whiteSpace=wrap;html=1;fillColor=#d5e8d4;strokeColor=#82b366;" vertex="1" parent="1">
          <mxGeometry x="510" y="420" width="120" height="60" as="geometry" />
        </mxCell>
        <mxCell id="r4UEvHGYDHARvGTvE8lU-47" value="transpose_qkv" style="text;html=1;align=center;verticalAlign=middle;resizable=0;points=[];autosize=1;strokeColor=none;fillColor=none;" vertex="1" parent="1">
          <mxGeometry x="400" y="420" width="100" height="30" as="geometry" />
        </mxCell>
        <mxCell id="r4UEvHGYDHARvGTvE8lU-68" style="edgeStyle=orthogonalEdgeStyle;rounded=0;orthogonalLoop=1;jettySize=auto;html=1;entryX=0.5;entryY=1;entryDx=0;entryDy=0;" edge="1" parent="1" source="r4UEvHGYDHARvGTvE8lU-48" target="r4UEvHGYDHARvGTvE8lU-58">
          <mxGeometry relative="1" as="geometry" />
        </mxCell>
        <mxCell id="r4UEvHGYDHARvGTvE8lU-48" value="key&lt;div&gt;[10,6,20]&lt;/div&gt;" style="rounded=1;whiteSpace=wrap;html=1;fillColor=#dae8fc;strokeColor=#6c8ebf;" vertex="1" parent="1">
          <mxGeometry x="510" y="500" width="120" height="60" as="geometry" />
        </mxCell>
        <mxCell id="r4UEvHGYDHARvGTvE8lU-69" style="edgeStyle=orthogonalEdgeStyle;rounded=0;orthogonalLoop=1;jettySize=auto;html=1;entryX=0.5;entryY=1;entryDx=0;entryDy=0;" edge="1" parent="1" source="r4UEvHGYDHARvGTvE8lU-49" target="r4UEvHGYDHARvGTvE8lU-61">
          <mxGeometry relative="1" as="geometry" />
        </mxCell>
        <mxCell id="r4UEvHGYDHARvGTvE8lU-49" value="&lt;div&gt;value&lt;/div&gt;&lt;div&gt;[10,6,20]&lt;/div&gt;" style="rounded=1;whiteSpace=wrap;html=1;fillColor=#f8cecc;strokeColor=#b85450;" vertex="1" parent="1">
          <mxGeometry x="510" y="580" width="120" height="60" as="geometry" />
        </mxCell>
        <mxCell id="r4UEvHGYDHARvGTvE8lU-53" value="transpose_qkv" style="text;html=1;align=center;verticalAlign=middle;resizable=0;points=[];autosize=1;strokeColor=none;fillColor=none;" vertex="1" parent="1">
          <mxGeometry x="400" y="500" width="100" height="30" as="geometry" />
        </mxCell>
        <mxCell id="r4UEvHGYDHARvGTvE8lU-54" value="transpose_qkv" style="text;html=1;align=center;verticalAlign=middle;resizable=0;points=[];autosize=1;strokeColor=none;fillColor=none;" vertex="1" parent="1">
          <mxGeometry x="400" y="580" width="100" height="30" as="geometry" />
        </mxCell>
        <mxCell id="r4UEvHGYDHARvGTvE8lU-55" value="" style="edgeStyle=orthogonalEdgeStyle;rounded=0;orthogonalLoop=1;jettySize=auto;html=1;" edge="1" source="r4UEvHGYDHARvGTvE8lU-56" target="r4UEvHGYDHARvGTvE8lU-61" parent="1">
          <mxGeometry relative="1" as="geometry" />
        </mxCell>
        <mxCell id="r4UEvHGYDHARvGTvE8lU-56" value="attention_weight&lt;div&gt;[10,4,6]&lt;/div&gt;" style="rounded=1;whiteSpace=wrap;html=1;fillColor=#fff2cc;strokeColor=#d6b656;" vertex="1" parent="1">
          <mxGeometry x="770" y="460" width="120" height="60" as="geometry" />
        </mxCell>
        <mxCell id="r4UEvHGYDHARvGTvE8lU-57" style="edgeStyle=orthogonalEdgeStyle;rounded=0;orthogonalLoop=1;jettySize=auto;html=1;entryX=0;entryY=0.5;entryDx=0;entryDy=0;" edge="1" source="r4UEvHGYDHARvGTvE8lU-58" target="r4UEvHGYDHARvGTvE8lU-56" parent="1">
          <mxGeometry relative="1" as="geometry" />
        </mxCell>
        <mxCell id="r4UEvHGYDHARvGTvE8lU-58" value="" style="ellipse;whiteSpace=wrap;html=1;aspect=fixed;" vertex="1" parent="1">
          <mxGeometry x="670" y="480" width="20" height="20" as="geometry" />
        </mxCell>
        <mxCell id="r4UEvHGYDHARvGTvE8lU-59" value="scoring&amp;nbsp;&lt;div&gt;function&lt;/div&gt;" style="text;html=1;align=center;verticalAlign=middle;resizable=0;points=[];autosize=1;strokeColor=none;fillColor=none;" vertex="1" parent="1">
          <mxGeometry x="690" y="450" width="70" height="40" as="geometry" />
        </mxCell>
        <mxCell id="r4UEvHGYDHARvGTvE8lU-60" value="" style="edgeStyle=orthogonalEdgeStyle;rounded=0;orthogonalLoop=1;jettySize=auto;html=1;" edge="1" source="r4UEvHGYDHARvGTvE8lU-61" target="r4UEvHGYDHARvGTvE8lU-63" parent="1">
          <mxGeometry relative="1" as="geometry" />
        </mxCell>
        <mxCell id="r4UEvHGYDHARvGTvE8lU-61" value="" style="ellipse;whiteSpace=wrap;html=1;aspect=fixed;" vertex="1" parent="1">
          <mxGeometry x="820" y="550" width="20" height="20" as="geometry" />
        </mxCell>
        <mxCell id="r4UEvHGYDHARvGTvE8lU-75" value="" style="edgeStyle=orthogonalEdgeStyle;rounded=0;orthogonalLoop=1;jettySize=auto;html=1;" edge="1" parent="1" source="r4UEvHGYDHARvGTvE8lU-63" target="r4UEvHGYDHARvGTvE8lU-71">
          <mxGeometry relative="1" as="geometry" />
        </mxCell>
        <mxCell id="r4UEvHGYDHARvGTvE8lU-63" value="tmp_output&lt;div&gt;[10,4,20]&lt;/div&gt;" style="rounded=1;whiteSpace=wrap;html=1;fillColor=#ffff88;strokeColor=#36393d;" vertex="1" parent="1">
          <mxGeometry x="920" y="530" width="120" height="60" as="geometry" />
        </mxCell>
        <mxCell id="r4UEvHGYDHARvGTvE8lU-64" value="product" style="text;html=1;align=center;verticalAlign=middle;resizable=0;points=[];autosize=1;strokeColor=none;fillColor=none;" vertex="1" parent="1">
          <mxGeometry x="850" y="530" width="60" height="30" as="geometry" />
        </mxCell>
        <mxCell id="r4UEvHGYDHARvGTvE8lU-74" value="" style="edgeStyle=orthogonalEdgeStyle;rounded=0;orthogonalLoop=1;jettySize=auto;html=1;" edge="1" parent="1" source="r4UEvHGYDHARvGTvE8lU-71" target="r4UEvHGYDHARvGTvE8lU-72">
          <mxGeometry relative="1" as="geometry" />
        </mxCell>
        <mxCell id="r4UEvHGYDHARvGTvE8lU-71" value="tmp_output&lt;div&gt;[2,4,100]&lt;/div&gt;" style="rounded=1;whiteSpace=wrap;html=1;fillColor=#ffff88;strokeColor=#36393d;" vertex="1" parent="1">
          <mxGeometry x="920" y="420" width="120" height="60" as="geometry" />
        </mxCell>
        <mxCell id="r4UEvHGYDHARvGTvE8lU-72" value="final_output&lt;div&gt;[2,4,15]&lt;/div&gt;" style="rounded=1;whiteSpace=wrap;html=1;fillColor=#e1d5e7;strokeColor=#9673a6;" vertex="1" parent="1">
          <mxGeometry x="1090" y="420" width="120" height="60" as="geometry" />
        </mxCell>
        <mxCell id="r4UEvHGYDHARvGTvE8lU-76" value="W_o" style="text;html=1;align=center;verticalAlign=middle;resizable=0;points=[];autosize=1;strokeColor=none;fillColor=none;" vertex="1" parent="1">
          <mxGeometry x="1040" y="420" width="50" height="30" as="geometry" />
        </mxCell>
        <mxCell id="r4UEvHGYDHARvGTvE8lU-77" value="concatenate" style="text;html=1;align=center;verticalAlign=middle;resizable=0;points=[];autosize=1;strokeColor=none;fillColor=none;" vertex="1" parent="1">
          <mxGeometry x="890" y="490" width="90" height="30" as="geometry" />
        </mxCell>
        <mxCell id="r4UEvHGYDHARvGTvE8lU-81" value="&lt;b&gt;Normal&lt;br&gt;Attention&lt;/b&gt;" style="ellipse;shape=cloud;whiteSpace=wrap;html=1;" vertex="1" parent="1">
          <mxGeometry x="1081" y="310" width="120" height="80" as="geometry" />
        </mxCell>
        <mxCell id="r4UEvHGYDHARvGTvE8lU-84" value="&lt;b&gt;MultiHead&lt;br&gt;Attention&lt;/b&gt;" style="ellipse;shape=cloud;whiteSpace=wrap;html=1;" vertex="1" parent="1">
          <mxGeometry x="1090" y="570" width="120" height="80" as="geometry" />
        </mxCell>
      </root>
    </mxGraphModel>
  </diagram>
</mxfile>
